<svg width="300" height="300" viewBox="0 0 300 300" fill="none" xmlns="http://www.w3.org/2000/svg">
<g clip-path="url(#clip0_22_5)">
<circle cx="150" cy="150" r="150" fill="url(#paint0_linear_22_5)"/>
<path d="M72.172 194C71.2333 194 70.4653 193.701 69.868 193.104C69.2707 192.507 68.972 191.739 68.972 190.8V107.6C68.972 106.661 69.2707 105.893 69.868 105.296C70.4653 104.699 71.2333 104.4 72.172 104.4H130.156C131.095 104.4 131.863 104.699 132.46 105.296C133.057 105.893 133.356 106.661 133.356 107.6V117.84C133.356 118.693 133.057 119.419 132.46 120.016C131.863 120.613 131.095 120.912 130.156 120.912H88.684V141.008H127.34C128.279 141.008 129.047 141.307 129.644 141.904C130.241 142.501 130.54 143.269 130.54 144.208V153.68C130.54 154.533 130.241 155.259 129.644 155.856C129.047 156.453 128.279 156.752 127.34 156.752H88.684V177.488H131.18C132.119 177.488 132.887 177.787 133.484 178.384C134.081 178.981 134.38 179.749 134.38 180.688V190.8C134.38 191.739 134.081 192.507 133.484 193.104C132.887 193.701 132.119 194 131.18 194H72.172ZM190.188 194C188.823 194 187.713 193.659 186.86 192.976C186.092 192.208 185.537 191.312 185.196 190.288L158.316 108.24C158.231 107.813 158.188 107.429 158.188 107.088C158.188 106.405 158.444 105.808 158.956 105.296C159.468 104.699 160.108 104.4 160.876 104.4H174.316C175.596 104.4 176.577 104.784 177.26 105.552C178.028 106.235 178.497 106.875 178.668 107.472L198.636 170.064L218.476 107.472C218.732 106.875 219.201 106.235 219.884 105.552C220.567 104.784 221.548 104.4 222.828 104.4H236.268C237.036 104.4 237.676 104.699 238.188 105.296C238.7 105.808 238.956 106.405 238.956 107.088C238.956 107.429 238.913 107.813 238.828 108.24L211.948 190.288C211.692 191.312 211.137 192.208 210.284 192.976C209.516 193.659 208.407 194 206.956 194H190.188Z" fill="white"/>
</g>
<defs>
<linearGradient id="paint0_linear_22_5" x1="150" y1="0" x2="150" y2="300" gradientUnits="userSpaceOnUse">
<stop stop-color="#203280"/>
<stop offset="0.951923" stop-color="#141F4F"/>
</linearGradient>
<clipPath id="clip0_22_5">
<rect width="300" height="300" fill="white"/>
</clipPath>
</defs>
</svg>
