<svg width="32" height="32" viewBox="-3.6 -3.6 31.20 31.20" fill="none" xmlns="http://www.w3.org/2000/svg">
  <defs>
    <linearGradient id="custom-gradient" x1="0" y1="0" x2="1" y2="0">
      <stop offset="0%" stop-color="#2563eb"/>
      <stop offset="100%" stop-color="#9333ea"/>
    </linearGradient>
  </defs>
  <g>
    <path
      transform="translate(-3.6, -3.6), scale(1.95)"
      fill="url(#custom-gradient)"
      d="M9.166.33a2.25 2.25 0 00-2.332 0l-5.25 3.182A2.25 2.25 0 00.5 5.436v5.128a2.25 2.25 0 001.084 1.924l5.25 3.182a2.25 2.25 0 002.332 0l5.25-3.182a2.25 2.25 0 001.084-1.924V5.436a2.25 2.25 0 00-1.084-1.924L9.166.33z"
    />
  </g>
  <g>
    <path d="M18.5 9L15.5 15L12.5 9" stroke="#ffffff" stroke-width="1.5" stroke-linecap="round" stroke-linejoin="round"/>
    <path d="M10 9H6L6 15L10 15" stroke="#ffffff" stroke-width="1.5" stroke-linecap="round" stroke-linejoin="round"/>
    <path d="M6 12H9" stroke="#ffffff" stroke-width="1.5" stroke-linecap="round" stroke-linejoin="round"/>
    <path d="M2 15V9C2 5.68629 4.68629 3 8 3H16C19.3137 3 22 5.68629 22 9V15C22 18.3137 19.3137 21 16 21H8C4.68629 21 2 18.3137 2 15Z" stroke="#ffffff" stroke-width="1.5"/>
  </g>
</svg>